<?xml version="1.0" encoding="utf-8"?>
<!-- Generator: Adobe Illustrator 27.7.0, SVG Export Plug-In . SVG Version: 6.00 Build 0)  -->
<svg version="1.1" id="Layer_1" xmlns="http://www.w3.org/2000/svg" xmlns:xlink="http://www.w3.org/1999/xlink" x="0px" y="0px"
	 viewBox="0 0 500 500" style="enable-background:new 0 0 500 500;" xml:space="preserve">
<style type="text/css">
	.st0{fill:#387146;stroke:#000000;stroke-miterlimit:10;}
	.st1{clip-path:url(#SVGID_00000177454605561899532590000014785842130807345312_);}
	.st2{fill-rule:evenodd;clip-rule:evenodd;fill:#FFFFFF;}
	.st3{fill:#FFFFFF;}
</style>
<rect class="st0" width="500" height="500"/>
<g>
	<defs>
		<rect id="SVGID_1_" x="80.2" y="80.2" width="339.7" height="339.7"/>
	</defs>
	<clipPath id="SVGID_00000026160679038278819790000008692601556421179574_">
		<use xlink:href="#SVGID_1_"  style="overflow:visible;"/>
	</clipPath>
	<g style="clip-path:url(#SVGID_00000026160679038278819790000008692601556421179574_);">
		<path class="st2" d="M183.1,274.3c-12.4-2.8-17.8-9.9-20.6-14c-7.6-11.1-13-24.8-14.5-38.1c-1.8-16.5,2.5-32,13.8-44.3
			c5.7-6.2,12.8-11.1,20.5-15c-2.2,0.4-4.4,1-6.5,1.6c-23.9,6.6-42.2,21.2-56.2,41.5l-11.9,17.3l1.3-21
			c1.9-30.3,10.5-66.6,43.9-75.9c10.1-2.8,20.8-2.6,31.1-1.1c11.6,1.7,22.8,5.2,33.9,9c0.5,0.2,1.1,0.4,2,0.7
			c-12-11.6-26.4-20.5-43.1-24.2c-6.3-1.4-12.8-2-19.2-1.7c-2.3,0.1-5.2,0.3-7.5,0.9l-36.1,9.2l31.6-19.8
			c25.6-16,61.1-30.2,87.2-7.2c8.5,7.5,14.7,18.2,18.7,29.4c3.3-8.9,7.9-17.5,14.3-24.6c8.7-9.5,19.7-14.8,32.5-15.5
			c18.3-1,37.4,7.2,52.9,16.2l18.3,10.6l-21.2,0.3c-19.6,0.2-39.9,3.8-56.4,14.9c-2,1.3-3.8,2.7-5.5,4.1c14.1-5.4,29-8.6,43.4-6.6
			c16.6,2.3,29.6,11.1,39,24.7c7.5,10.7,12.2,23.7,15,36.4c1.3,5.9,2.5,12.7,2.7,18.8l0.9,20.3L376,204.6
			c-11.7-16.9-27.1-28.2-44.5-35.1c2.1,1.6,4,3.3,5.9,5.1c12.4,12.1,17.4,27.6,16.6,44.7c-0.7,13.7-5,27.6-10.8,40
			c-2.7,5.8-6.1,12.3-9.7,17.6l-12.2,17.8l1.5-21.5c2.1-28.9-9.5-53.7-29.2-74.2c-12.8-13.3-28-23.8-44.1-32.6
			c-15.1,8.2-29.1,18.3-40.2,31.5c-7.5,9-13.2,19-16.9,30.2C188.2,241.5,181.4,260.3,183.1,274.3z"/>
		<path class="st3" d="M113,405.1c-4.1,0-7.4,3.3-7.4,7.4c0,4.1,3.3,7.4,7.4,7.4h273.9c4.1,0,7.4-3.3,7.4-7.4c0-4.1-3.3-7.4-7.4-7.4
			H113z"/>
		<path class="st2" d="M226.1,189.2c-13.5,55.8-30.4,159.6,5.2,223.2h40c-31.7-56.6-9.3-179.5,0.9-224.7
			c-7.2-5.5-14.8-10.3-22.7-14.7C241.3,177.7,233.3,183,226.1,189.2z"/>
	</g>
</g>
</svg>
