<svg width="242" height="36" viewBox="0 0 242 36" fill="none" xmlns="http://www.w3.org/2000/svg">
<g clip-path="url(#clip0_30112_4000)">
<path fill-rule="evenodd" clip-rule="evenodd" d="M10.909 20.5793C9.59074 20.2797 9.01863 19.5288 8.72224 19.0948C7.92117 17.9217 7.3396 16.4691 7.18181 15.0549C6.98732 13.3109 7.44216 11.6646 8.64434 10.3612C9.2515 9.70294 9.99676 9.18291 10.8134 8.77116C10.5824 8.81875 10.3515 8.87389 10.1205 8.93734C7.58699 9.63343 5.64288 11.1841 4.16174 13.3332L2.89844 15.1662L3.03638 12.9443C3.23594 9.72844 4.15335 5.88231 7.69246 4.90369C8.76343 4.60754 9.89918 4.6259 10.9903 4.78983C12.2221 4.97486 13.4086 5.34441 14.586 5.7403C14.6364 5.75724 14.7077 5.78199 14.7934 5.81163C13.5182 4.58246 11.9958 3.64271 10.229 3.24865C9.56466 3.1005 8.87164 3.03223 8.19116 3.0657C7.94418 3.07791 7.63965 3.10266 7.3974 3.16187L3.56655 4.1331L6.91988 2.03858C9.63351 0.343602 13.3933 -1.16195 16.1593 1.2802C17.0638 2.07886 17.717 3.20588 18.1434 4.39694C18.4969 3.45369 18.977 2.53894 19.659 1.79243C20.5797 0.784911 21.7425 0.227005 23.1081 0.149523C25.0491 0.0394028 27.0749 0.915128 28.7182 1.86643L30.6597 2.99029L28.4166 3.01895C26.3418 3.04535 24.1871 3.42587 22.4367 4.60248C22.2297 4.74158 22.0376 4.88492 21.8573 5.03307C23.3464 4.46205 24.936 4.12405 26.4559 4.33515C28.2116 4.57897 29.5893 5.51665 30.5911 6.9566C31.3836 8.0955 31.8858 9.46502 32.1831 10.8139C32.3212 11.44 32.4441 12.1605 32.4738 12.8044L32.5731 14.9547L31.3485 13.1843C30.1075 11.3903 28.4749 10.1993 26.6367 9.46352C26.8563 9.63086 27.0654 9.81032 27.2621 10.0027C28.5758 11.2876 29.1097 12.9305 29.0225 14.7422C28.9526 16.1964 28.4921 17.6629 27.8831 18.9781C27.5976 19.5944 27.2418 20.2773 26.8564 20.841L25.5663 22.7284L25.7302 20.448C25.9501 17.3872 24.7261 14.7591 22.6355 12.5891C21.2805 11.1825 19.6691 10.0616 17.9581 9.13333C16.3582 9.99925 14.8748 11.069 13.7021 12.4762C12.9099 13.4267 12.2979 14.4936 11.9162 15.6727C11.4537 17.1017 10.7283 19.0929 10.909 20.5793Z" fill="white"/>
<path d="M3.48576 34.4336C3.0535 34.4336 2.70312 34.784 2.70312 35.2162C2.70312 35.6484 3.0535 35.9989 3.48576 35.9989H32.5125C32.9448 35.9989 33.2951 35.6484 33.2951 35.2162C33.2951 34.784 32.9448 34.4336 32.5125 34.4336H3.48576Z" fill="white"/>
<path fill-rule="evenodd" clip-rule="evenodd" d="M15.4714 11.5613C14.0403 17.4792 12.2494 28.475 16.0266 35.2184H20.2628C16.8983 29.2157 19.2787 16.1912 20.3615 11.4014C19.6006 10.8236 18.7926 10.307 17.9585 9.83984C17.0766 10.3365 16.2343 10.9023 15.4714 11.5613Z" fill="white"/>
</g>
<path d="M56.4102 27.5L55.6719 24.4062H50.6562L49.8594 27.5H44.3867L50.1758 10.6953H56.457L61.9062 27.5H56.4102ZM53.2227 14.3516H53.1055C53.0898 14.5391 53.0352 14.8477 52.9414 15.2773C52.8477 15.707 52.375 17.5508 51.5234 20.8086H54.7344L53.5625 16.2383C53.3984 15.5664 53.2852 14.9375 53.2227 14.3516ZM78.9805 27.5V20.5859C78.9805 20.0078 78.875 19.5781 78.6641 19.2969C78.4609 19.0078 78.125 18.8633 77.6562 18.8633C77.1953 18.8633 76.8359 19.0391 76.5781 19.3906C76.3203 19.7344 76.1914 20.2148 76.1914 20.832V27.5H71.1992V20.7031C71.1992 19.4766 70.7812 18.8633 69.9453 18.8633C69.4375 18.8633 69.0547 19.043 68.7969 19.4023C68.5391 19.7539 68.4102 20.2617 68.4102 20.9258V27.5H63.418V15.5H68.4102V17.3984H68.457C68.6445 17.0625 68.9414 16.7227 69.3477 16.3789C69.7617 16.0273 70.2266 15.7461 70.7422 15.5352C71.2578 15.3164 71.8164 15.207 72.418 15.207C73.2695 15.207 73.9844 15.375 74.5625 15.7109C75.1484 16.0469 75.6367 16.5781 76.0273 17.3047C76.4492 16.6328 77.0117 16.1172 77.7148 15.7578C78.418 15.3906 79.1992 15.207 80.0586 15.207C81.3164 15.207 82.2812 15.6172 82.9531 16.4375C83.625 17.2578 83.9609 18.4414 83.9609 19.9883V27.5H78.9805ZM92.8789 27.5V25.6719H92.832C92.0352 27.0859 90.8164 27.793 89.1758 27.793C88.043 27.793 87.1562 27.457 86.5156 26.7852C85.875 26.1133 85.5547 25.2148 85.5547 24.0898C85.5547 21.7305 87.0039 20.3633 89.9023 19.9883L92.8789 19.6016C92.8789 19.2109 92.7031 18.8906 92.3516 18.6406C92 18.3906 91.5273 18.2656 90.9336 18.2656C89.5898 18.2656 88.1719 18.6484 86.6797 19.4141V16.168C87.3281 15.8867 88.1406 15.6562 89.1172 15.4766C90.0938 15.2969 90.9297 15.207 91.625 15.207C93.6641 15.207 95.1406 15.6445 96.0547 16.5195C96.9766 17.3867 97.4375 18.8398 97.4375 20.8789V27.5H92.8789ZM89.9258 23.4219C89.9258 23.75 90.0273 24.0195 90.2305 24.2305C90.4414 24.4414 90.7383 24.5469 91.1211 24.5469C91.6445 24.5469 92.0664 24.3516 92.3867 23.9609C92.7148 23.5703 92.8789 23.0703 92.8789 22.4609V22.0039L91.1914 22.2383C90.3477 22.3789 89.9258 22.7734 89.9258 23.4219ZM105.348 24.043H110.293V27.5H98.7969V25.1914L104.188 18.957H99.3008V15.5H110.188V18.3359L105.348 24.043ZM125.258 21.2891C125.258 23.3125 124.645 24.9023 123.418 26.0586C122.199 27.2148 120.492 27.793 118.297 27.793C116.117 27.793 114.418 27.2305 113.199 26.1055C111.988 24.9727 111.383 23.4141 111.383 21.4297C111.383 20.1562 111.668 19.0508 112.238 18.1133C112.809 17.1758 113.621 16.457 114.676 15.957C115.73 15.457 116.945 15.207 118.32 15.207C119.742 15.207 120.973 15.4688 122.012 15.9922C123.059 16.5156 123.859 17.2422 124.414 18.1719C124.977 19.1016 125.258 20.1406 125.258 21.2891ZM120.195 21.3125C120.195 19.6797 119.57 18.8633 118.32 18.8633C117.07 18.8633 116.445 19.7188 116.445 21.4297C116.445 23.2344 117.078 24.1367 118.344 24.1367C119.578 24.1367 120.195 23.1953 120.195 21.3125ZM134.902 27.5V20.9492C134.902 20.207 134.789 19.6758 134.562 19.3555C134.344 19.0273 133.984 18.8633 133.484 18.8633C133.055 18.8633 132.719 19.0312 132.477 19.3672C132.234 19.7031 132.113 20.1328 132.113 20.6562V27.5H127.121V15.5H132.113V17.375H132.16C132.559 16.6875 133.094 16.1562 133.766 15.7812C134.438 15.3984 135.168 15.207 135.957 15.207C138.582 15.207 139.895 16.8633 139.895 20.1758V27.5H134.902ZM168.418 27.5H163.039L160.707 17.9258C160.637 17.6523 160.559 16.9727 160.473 15.8867H160.426C160.309 16.8477 160.195 17.5273 160.086 17.9258L157.566 27.5H151.871L147.863 10.6953H153.418L154.824 20.5859C154.848 20.7109 154.883 21.0742 154.93 21.6758L155 22.6484H155.07C155.086 22.4453 155.133 22.1016 155.211 21.6172C155.289 21.125 155.363 20.7578 155.434 20.5156L158.023 10.6953H163.543L165.699 20.6562L165.852 21.6523L165.969 22.625H166.016L166.051 22.2148L166.203 20.5859L167.668 10.6953H172.66L168.418 27.5ZM179.398 12.2656C179.398 12.9688 179.141 13.5391 178.625 13.9766C178.117 14.4141 177.445 14.6328 176.609 14.6328C175.797 14.6328 175.129 14.4062 174.605 13.9531C174.09 13.5 173.832 12.9375 173.832 12.2656C173.832 11.5781 174.082 11.0234 174.582 10.6016C175.09 10.1719 175.766 9.95703 176.609 9.95703C177.445 9.95703 178.117 10.1719 178.625 10.6016C179.141 11.0234 179.398 11.5781 179.398 12.2656ZM174.113 27.5V15.5H179.105V27.5H174.113ZM181.52 27.5V9.73438H186.512V27.5H181.52ZM196.941 27.5V26.1055H196.895C196.496 26.6289 195.977 27.043 195.336 27.3477C194.695 27.6445 194.062 27.793 193.438 27.793C192.414 27.793 191.512 27.543 190.73 27.043C189.949 26.5352 189.363 25.8281 188.973 24.9219C188.59 24.0156 188.398 22.9453 188.398 21.7109C188.398 20.4375 188.629 19.3086 189.09 18.3242C189.551 17.3398 190.199 16.5742 191.035 16.0273C191.871 15.4805 192.809 15.207 193.848 15.207C194.34 15.207 194.793 15.2773 195.207 15.418C195.629 15.5586 195.992 15.75 196.297 15.9922C196.609 16.2266 196.809 16.4609 196.895 16.6953H196.941V9.73438H201.934V27.5H196.941ZM197.047 21.1367C197.047 20.418 196.887 19.8594 196.566 19.4609C196.254 19.0625 195.828 18.8633 195.289 18.8633C194.75 18.8633 194.309 19.1133 193.965 19.6133C193.629 20.1055 193.461 20.7656 193.461 21.5938C193.461 23.2891 194.047 24.1367 195.219 24.1367C195.773 24.1367 196.215 23.9102 196.543 23.457C196.879 22.9961 197.047 22.3281 197.047 21.4531V21.1367ZM204.348 27.5V9.73438H209.34V27.5H204.348ZM217.039 12.2656C217.039 12.9688 216.781 13.5391 216.266 13.9766C215.758 14.4141 215.086 14.6328 214.25 14.6328C213.438 14.6328 212.77 14.4062 212.246 13.9531C211.73 13.5 211.473 12.9375 211.473 12.2656C211.473 11.5781 211.723 11.0234 212.223 10.6016C212.73 10.1719 213.406 9.95703 214.25 9.95703C215.086 9.95703 215.758 10.1719 216.266 10.6016C216.781 11.0234 217.039 11.5781 217.039 12.2656ZM211.754 27.5V15.5H216.746V27.5H211.754ZM228.406 13.3672C227.891 13.1875 227.41 13.0977 226.965 13.0977C226.41 13.0977 226 13.2422 225.734 13.5312C225.469 13.8125 225.336 14.1953 225.336 14.6797V15.5H228.113V18.957H225.336V27.5H220.344V18.957H218.328V15.5H220.344V14.3984C220.344 13.4219 220.57 12.5625 221.023 11.8203C221.477 11.0703 222.133 10.4883 222.992 10.0742C223.859 9.66016 224.91 9.45312 226.145 9.45312C227.035 9.45312 227.789 9.53906 228.406 9.71094V13.3672ZM233.82 22.918C233.906 23.4336 234.203 23.8398 234.711 24.1367C235.219 24.4258 235.891 24.5703 236.727 24.5703C237.891 24.5703 238.992 24.3477 240.031 23.9023V27.0664C238.82 27.5508 237.352 27.793 235.625 27.793C233.531 27.793 231.902 27.2578 230.738 26.1875C229.574 25.1172 228.992 23.6445 228.992 21.7695C228.992 20.4805 229.246 19.3438 229.754 18.3594C230.27 17.375 231.027 16.6055 232.027 16.0508C233.035 15.4883 234.145 15.207 235.355 15.207C236.598 15.207 237.66 15.4492 238.543 15.9336C239.426 16.418 240.094 17.0977 240.547 17.9727C241.008 18.8477 241.238 19.8711 241.238 21.043V22.918H233.82ZM236.82 20.3047C236.82 18.9219 236.324 18.2305 235.332 18.2305C234.918 18.2305 234.57 18.4219 234.289 18.8047C234.008 19.1797 233.844 19.6797 233.797 20.3047H236.82Z" fill="white"/>
<defs>
<clipPath id="clip0_30112_4000">
<rect width="36" height="36" fill="white"/>
</clipPath>
</defs>
</svg>
