<svg width="64" height="64" viewBox="0 0 64 64" fill="none" xmlns="http://www.w3.org/2000/svg">
<path d="M60 16C60 12.6863 57.3138 10 54 10H22C18.6863 10 16 12.6863 16 16V19.5904C17.557 17.3459 20.1188 16 22.8612 16C25.869 16 28.5198 17.5942 29.9906 20H50C51.1046 20 52 20.8954 52 22C52 23.1046 51.1046 24 50 24H31.205L31.305 26H50C51.1046 26 52 26.8954 52 28C52 29.1046 51.1046 30 50 30H41.5528C41.9134 30.6228 42.1918 31.2952 42.375 32H50C51.1046 32 52 32.8954 52 34C52 35.1046 51.1046 36 50 36H42.37C42.3442 36.0996 42.3164 36.1992 42.2864 36.2988L39.3762 46H45.276L56.7196 53.5364C57.3158 54.0332 58.1456 54.1404 58.8484 53.8112C59.551 53.482 60 52.776 60 52V16Z" fill="#387146"/>
<path d="M29.2042 24.0338C29.0352 20.6538 26.2454 18 22.8612 18C20.7116 18 18.7078 19.0874 17.5363 20.8898L12.9146 28H6C4.89544 28 4 28.8954 4 30V52C4 53.1046 4.89544 54 6 54H14C15.1046 54 16 53.1046 16 52H31.0238C33.6736 52 36.0094 50.262 36.7708 47.724L40.3708 35.724C41.5258 31.8744 38.643 28 34.6238 28H29.4024L29.2042 24.0338Z" fill="#387146"/>
</svg>
