<svg width="64" height="64" viewBox="0 0 64 64" fill="none" xmlns="http://www.w3.org/2000/svg">
<path fill-rule="evenodd" clip-rule="evenodd" d="M17.1336 4.19742C17.8266 3.86438 18.649 3.958 19.2494 4.43828L31.2016 14H32.7984L44.7506 4.43828C45.351 3.958 46.1734 3.86438 46.8664 4.19742C47.5594 4.53046 48 5.2312 48 6.00002V9.41756L51.2712 8.13754C51.8868 7.89668 52.5816 7.97548 53.1274 8.34812C53.6734 8.72074 54 9.33904 54 10V14H58C59.1046 14 60 14.8954 60 16V36.0736C59.4116 35.7332 58.7286 35.5384 58 35.5384H57.5996L57.8828 35.2552C59.4448 33.6932 59.4448 31.1604 57.8828 29.5984L56 27.7156V18H54V25.766C53.3068 25.2368 52.455 24.9456 51.5732 24.9456C50.5124 24.9456 49.4948 25.3672 48.7448 26.1172L48.4616 26.4004V26C48.4616 23.7908 46.6706 22 44.4616 22H39.5384C37.3294 22 35.5384 23.7908 35.5384 26V26.4004L35.2554 26.1172C33.6932 24.5552 31.1606 24.5552 29.5984 26.1172L26.1174 29.5984C24.5552 31.1604 24.5552 33.6932 26.1174 35.2552L26.4006 35.5384H26C23.7908 35.5384 22 37.3294 22 39.5384V44.4616C22 45.9964 22.8644 47.3294 24.133 48H6C4.89544 48 4 47.1046 4 46V16C4 14.8954 4.89544 14 6 14H10V10C10 9.33904 10.3266 8.72074 10.8725 8.34812C11.4185 7.97548 12.1133 7.89668 12.7288 8.13754L16 9.41756V6.00002C16 5.2312 16.4407 4.53046 17.1336 4.19742ZM17.9833 44L11.4406 42.0942C10.587 41.8454 10 41.063 10 40.174V18H8V44H17.9833Z" fill="#387146"/>
<path fill-rule="evenodd" clip-rule="evenodd" d="M39.5384 24C38.4338 24 37.5384 24.8954 37.5384 26V28.4022C36.8476 28.6288 36.18 28.9064 35.5402 29.2306L33.841 27.5314C33.06 26.7504 31.7938 26.7504 31.0126 27.5314L27.5316 31.0126C26.7504 31.7936 26.7504 33.06 27.5316 33.841L29.2306 35.5402C28.9064 36.18 28.6288 36.8476 28.4022 37.5384H26C24.8954 37.5384 24 38.4338 24 39.5384V44.4616C24 45.5662 24.8954 46.4616 26 46.4616H28.4022C28.6288 47.1524 28.9064 47.82 29.2306 48.4598L27.5316 50.159C26.7504 50.94 26.7504 52.2062 27.5316 52.9874L31.0126 56.4684C31.3878 56.8436 31.8964 57.0542 32.4268 57.0542C32.9574 57.0542 33.466 56.8436 33.841 56.4684L35.5402 54.7694C36.18 55.0936 36.8476 55.3712 37.5384 55.5978V58C37.5384 59.1046 38.4338 60 39.5384 60H44.4616C45.5662 60 46.4616 59.1046 46.4616 58V55.5978C47.1524 55.3712 47.82 55.0936 48.4598 54.7694L50.159 56.4684C50.94 57.2494 52.2064 57.2494 52.9874 56.4684L56.4686 52.9874C57.2496 52.2062 57.2496 50.94 56.4686 50.1588L54.7694 48.4598C55.0936 47.82 55.3712 47.1524 55.5978 46.4616H58C59.1046 46.4616 60 45.5662 60 44.4616V39.5384C60 38.4338 59.1046 37.5384 58 37.5384H55.5978C55.3712 36.8476 55.0936 36.18 54.7694 35.5402L56.4686 33.841C57.2496 33.06 57.2496 31.7936 56.4686 31.0126L52.9874 27.5314C52.6124 27.1564 52.1036 26.9456 51.5732 26.9456C51.0428 26.9456 50.534 27.1564 50.159 27.5314L48.4598 29.2306C47.82 28.9064 47.1524 28.6288 46.4616 28.4022V26C46.4616 24.8954 45.5662 24 44.4616 24H39.5384ZM42 50C46.4182 50 50 46.4182 50 42C50 37.5818 46.4182 34 42 34C37.5818 34 34 37.5818 34 42C34 46.4182 37.5818 50 42 50Z" fill="#387146"/>
</svg>
