<svg width="64" height="64" viewBox="0 0 64 64" fill="none" xmlns="http://www.w3.org/2000/svg">
<path fill-rule="evenodd" clip-rule="evenodd" d="M4 6C4 2.6863 6.6863 0 10 0H46C49.3138 0 52 2.6863 52 6V8H54C57.3138 8 60 10.6863 60 14V58C60 61.3138 57.3138 64 54 64H18C14.6863 64 12 61.3138 12 58V56H10C6.68628 56 4 53.3138 4 50V42.8284L12 34.8284L17.5858 40.4142C18.3668 41.1952 19.6332 41.1952 20.4142 40.4142L30.964 29.8646C31.2944 29.9528 31.6416 30 32 30C34.2092 30 36 28.2092 36 26C36 23.7908 34.2092 22 32 22C29.7908 22 28 23.7908 28 26C28 26.3584 28.0472 26.7056 28.1354 27.036L19 36.1716L13.4142 30.5858C12.6332 29.8048 11.3668 29.8048 10.5858 30.5858L4 37.1716V6ZM16 56V58C16 59.1046 16.8954 60 18 60H54C55.1046 60 56 59.1046 56 58V14C56 12.8954 55.1046 12 54 12H52V50C52 53.3138 49.3138 56 46 56H16Z" fill="#387146"/>
</svg>
