<svg width="64" height="64" viewBox="0 0 64 64" fill="none" xmlns="http://www.w3.org/2000/svg">
<path d="M2.66667 0C4.13941 0 5.33333 1.19391 5.33333 2.66667V58.6667H61.3333C62.8061 58.6667 64 59.8605 64 61.3333C64 62.8061 62.8061 64 61.3333 64H2.66667C1.19391 64 0 62.8061 0 61.3333V2.66667C0 1.19391 1.19391 0 2.66667 0Z" fill="#387146"/>
<path d="M34.6667 53.3333C34.6667 54.8061 33.4728 56 32 56H10.6667C9.19389 56 8 54.8061 8 53.3333V42.6667C8 41.1939 9.19392 40 10.6667 40H32C33.4728 40 34.6667 41.1939 34.6667 42.6667V53.3333Z" fill="#387146"/>
<path d="M45.3333 34.6654C45.3333 36.1382 44.1395 37.332 42.6667 37.332H10.6667C9.19389 37.332 8 36.1382 8 34.6654V23.9987C8 22.5259 9.19392 21.332 10.6667 21.332H42.6667C44.1395 21.332 45.3333 22.526 45.3333 23.9987V34.6654Z" fill="#387146"/>
<path d="M58.6667 16.0013C58.6667 17.4741 57.4728 18.668 56 18.668H10.6667C9.19392 18.668 8 17.4741 8 16.0013V5.33464C8 3.86186 9.19392 2.66797 10.6667 2.66797L56 2.66797C57.4728 2.66797 58.6667 3.86189 58.6667 5.33464V16.0013Z" fill="#387146"/>
</svg>
